<?xml version="1.0" encoding="UTF-8"?><svg xmlns="http://www.w3.org/2000/svg" viewBox="0 0 371.64 525.11"><defs><style>.d{fill:#d7d2e8;}.e{fill:#c9b88f;}.f{fill:#47321a;}.g{opacity:.76;}</style></defs><g id="a"/><g id="b"><g id="c"><g><g><path class="f" d="M15.84,40.88c.91,.85,1.36,2.07,1.36,3.65,0,1.22-.27,2.28-.8,3.19-.53,.91-1.3,1.61-2.29,2.11-.99,.5-2.15,.75-3.49,.75h-1.6v.05l.15,5.1h-3.4l.17-4.8-.17-11.3,6.17-.02c1.68,0,2.98,.42,3.89,1.27Zm-2.16,3.95c0-.9-.23-1.57-.69-2.01-.46-.44-1.16-.68-2.11-.71l-1.7,.1-.1,5.8,2.3,.1c1.53-.43,2.3-1.52,2.3-3.27Z"/><path class="f" d="M29.31,44.53c1.03,1.08,1.55,2.62,1.55,4.6,0,2.17-.56,3.85-1.69,5.04-1.12,1.19-2.71,1.79-4.76,1.79-1.88,0-3.34-.55-4.38-1.66-1.03-1.11-1.55-2.67-1.55-4.69,0-2.13,.56-3.78,1.67-4.95,1.12-1.17,2.7-1.75,4.75-1.75,1.9,0,3.37,.54,4.4,1.62Zm-6.89,1.76c-.44,.56-.66,1.52-.66,2.89,0,1.1,.1,1.96,.29,2.59,.19,.62,.5,1.07,.92,1.34s1,.4,1.71,.4c1.05,0,1.8-.27,2.24-.82,.44-.55,.66-1.52,.66-2.9,0-1.1-.1-1.96-.3-2.59s-.51-1.07-.92-1.34c-.42-.27-.99-.4-1.73-.4-1.03,0-1.77,.28-2.21,.84Z"/><path class="f" d="M36.38,51.68l.12,4.05h-3.15l.12-3.75-.12-8.88h3.2l-.17,8.58Z"/><path class="f" d="M51.63,51.73l.12,4h-3.42l-5.05-7.83h-.17l-.02,3.4,.1,4.42h-2.85l.12-3.7-.12-8.92h3.4l5.05,7.83h.23l-.1-7.7,2.9-.2-.17,8.7Z"/><path class="f" d="M64.01,43.35l-.18,2.4-2.55-.17h-.73l-.08,6.1,.1,4.05h-3.12l.12-3.75-.05-6.4h-.73l-2.6,.17-.2-.25,.17-2.4h9.65l.18,.25Z"/><path class="f" d="M74.01,43.55l-.48,2.8-.45,.12c-.53-.4-1.05-.7-1.55-.9-.5-.2-.96-.3-1.38-.3-.47,0-.83,.11-1.1,.34s-.4,.5-.4,.81c0,.35,.17,.64,.5,.86s.86,.49,1.58,.79c.75,.32,1.36,.61,1.84,.88,.48,.27,.88,.64,1.23,1.11,.34,.48,.51,1.07,.51,1.79s-.19,1.39-.56,2.01-.94,1.13-1.7,1.51c-.76,.38-1.7,.58-2.81,.58-.6,0-1.25-.06-1.96-.19-.71-.12-1.4-.32-2.06-.59l.42-2.95,.33-.23c.55,.5,1.17,.9,1.85,1.2,.68,.3,1.29,.45,1.83,.45,.47,0,.85-.12,1.14-.35,.29-.23,.44-.53,.44-.88,0-.37-.17-.66-.51-.89-.34-.23-.87-.48-1.59-.76-.75-.32-1.36-.61-1.84-.89-.48-.28-.88-.65-1.23-1.14-.34-.48-.51-1.08-.51-1.8s.2-1.43,.61-2.05c.41-.62,.99-1.1,1.75-1.45,.76-.35,1.65-.53,2.66-.53,1.2,0,2.35,.21,3.45,.62Z"/><path class="f" d="M91.02,44.54c1.04,1.02,1.56,2.49,1.56,4.39,0,2.23-.59,3.95-1.76,5.15-1.18,1.2-2.86,1.8-5.06,1.8-1.28,0-2.88-.05-4.77-.15l.12-3.75-.12-8.88,5.55-.1c1.95,0,3.45,.51,4.49,1.54Zm-1.69,5.14c0-1.48-.24-2.55-.72-3.19-.48-.64-1.26-.96-2.33-.96-.78,0-1.5,.03-2.15,.1l-.12,6.05,.05,1.62c.4,.05,.81,.09,1.23,.12,.42,.03,.77,.05,1.05,.05,2,0,3-1.27,3-3.8Z"/><path class="f" d="M103.78,53.18l.2,.2-.23,2.35h-8.65l.12-3.75-.12-8.88h8.77l.17,.25-.2,2.33-3.25-.12h-2.35l-.05,2.55,2.25,.02,2.18-.07,.17,.22-.2,2.38-2.38-.07h-2.08l-.02,1.1,.05,1.6h2.2l3.4-.1Z"/><path class="f" d="M116.7,55.73h-3.77l-4-12.62h3.17l.38,1.83,2.3,7.92h.2l2.68-7.75,.35-2h3.1l-4.4,12.62Z"/><path class="f" d="M131.83,53.18l.2,.2-.23,2.35h-8.65l.12-3.75-.12-8.88h8.77l.17,.25-.2,2.33-3.25-.12h-2.35l-.05,2.55,2.25,.02,2.18-.07,.17,.22-.2,2.38-2.38-.07h-2.08l-.02,1.1,.05,1.6h2.2l3.4-.1Z"/><path class="f" d="M145.85,51.73l.12,4h-3.42l-5.05-7.83h-.17l-.02,3.4,.1,4.42h-2.85l.12-3.7-.12-8.92h3.4l5.05,7.83h.23l-.1-7.7,2.9-.2-.17,8.7Z"/><path class="f" d="M158.23,43.35l-.18,2.4-2.55-.17h-.73l-.08,6.1,.1,4.05h-3.12l.12-3.75-.05-6.4h-.73l-2.6,.17-.2-.25,.17-2.4h9.65l.18,.25Z"/><path class="f" d="M169.2,53.18l.2,.2-.23,2.35h-8.65l.12-3.75-.12-8.88h8.77l.17,.25-.2,2.33-3.25-.12h-2.35l-.05,2.55,2.25,.02,2.18-.07,.17,.22-.2,2.38-2.38-.07h-2.08l-.02,1.1,.05,1.6h2.2l3.4-.1Z"/><path class="f" d="M179.85,43.55l-.48,2.8-.45,.12c-.53-.4-1.05-.7-1.55-.9-.5-.2-.96-.3-1.38-.3-.47,0-.83,.11-1.1,.34s-.4,.5-.4,.81c0,.35,.17,.64,.5,.86s.86,.49,1.58,.79c.75,.32,1.36,.61,1.84,.88,.48,.27,.88,.64,1.23,1.11,.34,.48,.51,1.07,.51,1.79s-.19,1.39-.56,2.01-.94,1.13-1.7,1.51c-.76,.38-1.7,.58-2.81,.58-.6,0-1.25-.06-1.96-.19-.71-.12-1.4-.32-2.06-.59l.42-2.95,.33-.23c.55,.5,1.17,.9,1.85,1.2,.68,.3,1.29,.45,1.83,.45,.47,0,.85-.12,1.14-.35,.29-.23,.44-.53,.44-.88,0-.37-.17-.66-.51-.89-.34-.23-.87-.48-1.59-.76-.75-.32-1.36-.61-1.84-.89-.48-.28-.88-.65-1.23-1.14-.34-.48-.51-1.08-.51-1.8s.2-1.43,.61-2.05c.41-.62,.99-1.1,1.75-1.45,.76-.35,1.65-.53,2.66-.53,1.2,0,2.35,.21,3.45,.62Z"/></g><path d="M371.61,485.34l-8.67-2.45c2.43,3.01,5.28,3.2,8.67,2.45Z"/><path d="M364.72,346.87c-.86,1.52-1.85,1.84-3.67,1.75-3.55-.17-7.49-1.24-10.41,2.5,.53,.45,1,.94,1.55,1.29,2.15,1.38,2.09,3.06,.58,4.79-.78,.9-1.77,1.64-2.75,2.33-4.98,3.45-10.19,3.59-15.73,1.31-5.78-2.39-11-.56-15.82,2.83-3.86,2.72-7.62,5.57-11.5,8.26-2.18,1.52-5.67,.27-6.33-2.24-.3-1.15-.25-2.41-.3-3.62-.12-3.04-1.84-3.96-4.49-2.42-3.35,1.95-5.64,4.35-6.07,8.63-.5,4.97-5.1,6.79-9.07,4.67-.47-2.96-.82-5.48-1.3-7.97-.31-1.62-.31-3.76-1.33-4.69-3.45-3.15-2.56-7.07-1.58-10.37,.85-2.89,1.22-4.97-.59-7.53-2.07-2.93-.93-5.48,2.4-6.49,.92-.28,1.86-.81,2.55-1.48,2.51-2.42,1.02-5.44,1.09-8.23,.03-1.32-.13-3.09,.61-3.87,3.85-4.01,4.81-8.59,3.6-13.84-.6-2.59-1.13-5.2-1.68-7.75-.76,.09-.98,.07-1.16,.14-2.76,1.09-5.22,3.92-8.62,1.35-.24-.18-1.2,.47-1.75,.84-1.17,.79-2.22,1.81-3.46,2.44-3.04,1.54-5.39,3.59-7.19,6.62-2.63,4.44-6.51,7.44-12.01,7.58-4.65,.11-7.61,2.76-9.92,6.44h.06c-.64,1.84-.82,4.2-2.09,5.36-2.36,2.16-5.39,3.59-8.14,5.32l-.08-1.1c-1.42-.74-2.84-1.48-4.7-2.45,1.26-.27,2.05-.44,3.1-.67-3.1-1.6-3.34-2.31-2.01-5.29,1.07-2.4,0-7.67-1.88-8.03-5.57-1.07-9.73-4.31-13.53-8.19-1.26-1.28-2.43-1.29-3.62,.02-1.28,1.42-2.59,2.82-3.79,4.31-2.52,3.13-6.5,3.74-8.24,1.24-1.24-1.78-2.62-3.47-3.89-5.23-.28-.38-.6-.96-.5-1.35,.3-1.22,.53-3.16,1.27-3.41,1.21-.41,3.01-.07,4.17,.61,1.85,1.09,3.3,2.94,5.56,2.41,.46-1.41,.53-2.78,1.23-3.6,2.09-2.42,4.44-4.6,6.66-6.91,1.75-1.82,1.46-2.72-.93-3.65-2.23-.88-4.68-1.56-6.52-2.98-1.92-1.47-3.49-1.7-5.49-.64-.78,.42-1.63,.71-1.66,.73-1.77-.53-2.8-1.1-3.81-1.06-1.1,.04-2.18,.65-3.47,1.07-.45-5.1-.51-9.87-1.37-14.49-1.01-5.4,1.13-9,5.43-11.62,1.11-.67,2.93-.92,4.15-.52,4.04,1.32,5.54,.36,6.21-3.77,.33-2.05,1.29-4.19,2.54-5.86,3.41-4.52,7.26-8.7,10.62-13.25,.93-1.26,1.59-4.26,.91-4.88-3.25-3.02-1.21-5.05,.8-7.11,3.42-3.49,5.65-7.47,6.44-12.39,.27-1.66,1.9-3.09,2.82-4.67,.62-1.06,1.66-2.26,1.55-3.29-.7-6.15,.05-12.95-7.09-16.47-1.62-.8-2.72-2.67-4.06-4.05-.95-.98-1.9-1.97-2.88-2.98-2.47,1.57-4.62,2.94-6.9,4.38,1.7,.91,3,1.6,4.69,2.51-1.99,1.54-3.4,2.63-4.81,3.73,1,.48,1.8,.01,2.24,.24,1.21,.63,2.41,1.43,3.32,2.43,.45,.49,.65,2,.31,2.3-3.7,3.23-3.54,8.02-5.07,12.1-.2,.52-.05,1.59,.3,1.8,.44,.27,1.3,.03,1.91-.19,.79-.29,1.51-.77,2.66-1.38-.17,1.68-.33,2.67-.37,3.66-.32,9.09-2.48,10.33-10.8,6.39-.76-.36-2.28-.09-2.95,.48-3.05,2.58-12.58,1.04-13.38-2.78-.6-2.84-2.51-3.14-4.01-4.44-4.36,4.42-4.32,4.23-10.66,2.83-1.84-.41-4.2,.24-5.97,1.11-3.06,1.5-5.8,3.63-8.76,5.35-2.74,1.59-4.37,.96-5.87-1.94-.25-.47-.74-.82-1.17-1.29,2.08-2.56,3.7-5.35,7.36-5.59,.59-.04,1.19-.68,1.71-1.14,2.07-1.86,4.2-3.67,6.13-5.66,2.05-2.11,3.38-5.06,6.83-5.4,.22-.02,.45-.4,.61-.65,1.92-3.08,4.18-6.01,5.68-9.29,3.42-7.49,8.74-12.74,16.1-15.81,.6-1.46,1.32-3.48,2.46-3.76,4.2-1.03,4.31-.81,4.22-5.13-.06-2.92,.67-5.56,3.16-7.15,2.3-1.47,4.81-3.21,7.39-3.52,4.19-.51,6.77-3.36,9.82-5.44,2.91-1.99,5.53-3.35,8.96-1.03,2.08-7.76,6.5-12.79,14.59-14.01,.67-.1,1.59-1.48,1.62-2.29,.12-3.64,.02-7.29-.15-10.93-.04-.81-.43-2.04-1.01-2.31-4.72-2.23-8.55-6.91-14.61-5.6-3.76,.82-7.65,1.31-11.24,2.62-3.87,1.4-7.42,3.65-11.18,5.37-.99,.45-2.25,.29-3.39,.41-.13-1.54-.96-3.6-.26-4.54,3.22-4.36,2.85-8.67,.96-13.32-.25-.62,.7-2.5,1.21-2.55,4.72-.48,8-3.22,10.7-6.7,2.19-2.83,4.88-3.17,8.09-2.66,1.23,.19,3.35,.31,3.68-.3,1.93-3.5,5.53-4.5,8.28-6.65,3.31-2.59,4.92-7.63,6.64-11.86,.8-1.97,1.39-2.35,3.34-2.22,5.57,.36,11.16,.44,17.24,.65-.38-2.24-.75-3.6-.8-4.96-.03-.91,.14-2.41,.66-2.64,2.59-1.15,2.42-3.25,2.61-5.5,.11-1.32,.78-3.11,1.78-3.74,2.89-1.79,7.58-.91,10.15,1.36,.59,.52,1.32,1.04,2.06,1.19,6.18,1.28,12.28,1.03,18.12-1.54,4.63-2.04,8.21-5.37,11.19-9.44,.63-.87,1.86-1.64,2.88-1.74,.48-.05,1.5,1.54,1.63,2.48,.3,2.11,1.39,2.36,3.29,2.52,6.5,.56,12.97,1.52,19.47,2.11,1.41,.13,3.32-.24,4.27-1.14,2.28-2.18,4.21-4.64,7.79-4.45,.06,0,.13-.35,.26-.69-3.01-2.05-4.09-5.18-4.28-8.68-.28-5.08-1.17-5.75-6.24-4.54-.88,.21-1.74,.53-2.62,.72-3.1,.66-6.99-1.08-8.9-3.53-.74-.95-2.15-1.43-3.32-1.98-.7-.33-1.79-.12-2.27-.59-3.3-3.25-6.48-6.62-10.37-10.64-3.51,.24-7.1-1.45-8.49-6.57-5.96-.05-11.93,.37-16.88,3.8-2.67,1.85-4.1,1.02-6-.53-.75-.61-1.54-1.35-2.43-1.59-2.97-.78-6.02-1.24-8.98-2.05-3.64-.99-4.69-2.9-3.66-6.55,.43-1.53,1.37-2.91,1.97-4.41,.48-1.21,.79-2.5,1.34-4.28-3.77,1.14-6.17,.23-8.22-2.2-2.22-2.64-5.26-2.96-7.95-1.22-4.09,2.65-8.18,2.27-12.46,1.07-2.04-.57-4.02-1.46-6.09-1.77-2.15-.32-4.45-.47-6.56-.05-2.65,.53-3.86,3.91-2.61,6.39,.5,.99,1.45,1.84,1.67,2.87,.4,1.83,1.25,4.61,.39,5.45-2.37,2.34-5.3,4.57-8.42,5.53-2.7,.83-2.93,2.54-3.81,4.39-.77,1.62-1.99,3.03-3.04,4.52-.88,1.26-1.89,2.44-2.67,3.76-.81,1.37-1.58,2.8-2.06,4.31-.62,1.96-.93,4.01-1.44,6.34,7.58,.22,14.14,1.25,20.55-2.28,3.63-1.99,8.11-2.91,11.72,.85,1.17,1.21,2.28,2.54,3.15,3.97,1.75,2.89-.16,8.87-3.09,9.35-3.72,.61-5.38,3.06-6.04,6.26-.62,3.06-3.08,3.72-5.27,4.66-2.91,1.24-5.96,2.15-8.15,2.92,.24,4.9,.46,9.09,.63,13.29,.01,.36-.19,.84-.45,1.08-2.59,2.36-5.1,4.82-7.87,6.96-2.93,2.27-6.04,4.23-7.59,7.87-1.24,2.93-2.81,5.66-6.53,6.04-.4,.04-.74,.68-1.37,1.3,1.21,.35,2.02,.58,3.64,1.05-.89,1.84-1.23,4.04-2.5,4.95-5.86,4.22-9.97,11.25-18.27,11.67-.48,.02-.96,.69-1.38,1.11-1.07,1.05-2.12,2.14-3.18,3.21l.93,.4c-.66,1.88-.8,4.57-2.12,5.44-1.73,1.14-4.41,.83-6.68,1.14,.62,4.79-2.26,6.62-6.52,7.58,.72,1.08,1.33,1.84,1.76,2.67,.65,1.25,1.79,2.69,1.56,3.81-.18,.88-2.08,1.9-3.28,1.99-3.27,.25-4.84,2.19-6.15,4.82-1.29,2.58-2.66,5.16-4.36,7.47-.7,.96-2.27,1.43-3.54,1.78-1.6,.45-3.41,.29-4.94,.87-5,1.91-9.8,4.38-14.88,6.01-5.89,1.89-11.11,4.42-14.53,9.84-1.34,2.13-2.92,4.11-4.24,6.25-.35,.57-.48,1.76-.13,2.2,1.87,2.35,3.97,4.52,5.88,6.84,.58,.71,1.15,1.72,1.14,2.59-.03,3.31-.17,6.63-.55,9.92-.13,1.08-.99,2.17-1.74,3.07-1.92,2.3-3.82,4.47-3.85,7.8-.01,1.56-1.11,3.09-1.49,4.68-.18,.76-.11,1.91,.35,2.42,.92,1,2.13,1.79,3.33,2.47,1.64,.93,2.28,2.03,1.68,3.95-1.67,5.39-5.41,8.46-10.62,10.14-1.56,.5-3.81,1.09-4.32,2.25-2.09,4.82-6.32,7.43-10.14,10.31-4.22,3.18-9.29,5.25-13.4,8.55-4.75,3.81-8.83,8.47-13.26,12.69-6.82,6.51-13.65,13-20.55,19.41-2.22,2.06-3.31,4.74-2.01,6.01,3.81,3.73,8.07,7.18,7.59,13.36-2.22,2.14-4.88,4.14-6.8,6.7-2.27,3.05-3.52,6.89-5.92,9.8-1.9,2.3-1.75,4.4-1.78,6.99-.05,4.1-.81,8.2-1.23,11.84,5.25,4.39,10.82,8.83,16.09,13.6,1.28,1.16,1.97,3.37,2.21,5.19,.58,4.32-2.6,7.18-4.67,10.44-1.04,1.65-2.21,3.25-3.01,5.01-.86,1.88-1.21,3.98-2.04,5.88-1.01,2.32-1.67,4.48-.1,6.83,2.27,3.39,1.13,6.48-2.76,7.75-3.02,.99-6.03,2-9.06,2.92-1.94,.59-3.98,1.61-5.87,1.41-2.87-.32-4.6,.63-6.1,2.86-.76,1.13-1.67,2.48-2.83,2.94-2.63,1.05-3.94,2.81-4.36,5.45,5.81,2.81,5.43,3.45,3.33,9.77-.35,1.05-.92,2.03-1.24,3.09-.24,.79-.25,1.64-.32,2.18,3.34,.47,6.33,.62,9.17,1.38,2.24,.6,3.34,.24,4.57-1.79,.69-1.14,2.69-2.1,4.08-2.07,3.26,.07,6.5,.92,9.77,1.17,1.91,.15,4.27,.42,5.72-.5,5.92-3.72,12.22-7.02,16.2-13.24,1.36-2.12,3.24-4.18,5.37-5.47,2.85-1.73,6.35-2.38,9.24-4.05,2.07-1.2,4-3.09,5.24-5.13,.67-1.12,.22-3.45-.54-4.77-.92-1.59-2.18-.16-3.46,.34-1.47,.57-3.77,.63-5-.18-2.44-1.6-4.38-3.95-6.42-5.89-.83,.55-1.99,1.5-3.3,2.15-2.04,1.01-3.36,2.18-3.43,4.79-.08,2.76-.26,5.83-1.52,8.16-1.53,2.82-4.23,4.99-6.99,8.08-.49-1.73-.99-2.71-.78-2.9,1.79-1.63,.36-2.84-.31-4.25-1.51-3.16-.59-8.57,2.11-10.98,2.55-2.27,3.03-4.96,3.01-8.16-.01-1.74,.67-3.69,1.61-5.18,2.39-3.8,4.51-7.57,4.94-12.2,.48-5.2,2.75-9.58,7.1-12.72,.48-.35,1.19-.79,1.25-1.25,.28-2.32,2.04-2.37,3.71-2.72,2.5-.52,4.58-1.61,5.23-4.39,.7-3.01,.59-5.95,4.13-8.1,3.34-2.03,5.64-5.85,8.19-9.05,1.99-2.51,4.59-3.12,7.31-2.38,5.5,1.51,10.33,.4,14.88-2.8,.89-.63,2.08-.82,3.01-1.41,3.28-2.09,6.58-4.01,8.25-7.99,.79-1.87,2.79-3.57,4.66-4.52,.89-.45,2.75,1.08,4.19,1.67,2.72,1.11,5.49,1.64,8.04-.27,2.96-2.23,5.81-2.28,8.96-.37,3.01,1.84,6.22,3.76,9.9,2.26,2.81-1.14,5.37-.66,7.79,.59,1.83,.95,3.28,2.65,5.1,3.63,1.26,.68,3.03,1.23,4.31,.87,1.88-.52,3.14-.3,4.73,.8,2.26,1.57,4.68,3.16,7.28,3.94,3.53,1.07,7.29,1.39,10.95,2.03-.04-.03-.07-.06-.1-.09,3.33,2.04,6.69,4.04,9.98,6.14,2.62,1.67,5.5,3.14,7.64,5.3,1.65,1.67,3.24,4.26,3.29,6.47,.09,3.98-2.64,5.39-7.36,4.89-1.66-.18-3.52-.5-5.01,.02-4.44,1.56-8.74,3.46-13.3,.41-.35-.23-.91-.14-1.87-.26,2.51,6.53-2.35,8.72-6.51,11.41,2.14,3.2,3.71,6.62,6.24,9.05,3.26,3.13,7.33,5.4,10.94,8.19,.8,.62,1.35,1.78,1.64,2.8,1.64,5.74-.11,10.8-3.58,15.3-4.07,5.29-7.28,10.68-5.19,17.78,.66,2.23,.1,4.09-2.31,5.58-1.74,1.08-2.78,3.35-3.98,5.19-.27,.42-.12,1.47,.23,1.89,2,2.38,4.35,4.47,7.74,3.33,5.29-1.78,10.12,.03,15.02,1.51,2.23,.67,3.16,2.72,2.64,4.87-.37,1.53-.71,3.26-.35,4.72,.67,2.73-.4,4.81-1.41,7.17-.88,2.04-.93,4.44-1.34,6.67,.54,.21,1.08,.42,1.61,.63,1.02-1.53,2.13-3,3.02-4.59,1.31-2.34,5.23-3.24,6.87-1.27,2.92,3.53,5.64,7.22,8.43,10.86,1.52,1.99,3.02,4,4.51,6.02,3.63,4.9,7.89,9.58,5.89,16.73,.98,.27,1.93,.56,2.88,.79,2.33,.54,3.75,1.48,3.7,4.38-.07,3.82,.78,7.36,3.83,10.39,2.54,2.51,4.31,5.83,6.2,8.93,1.7,2.79,3.09,5.76,4.87,9.12,2.53-3.2,3.56-7.38,8.38-7.46,4.57-.08,6.02,4.2,9.47,6.16,.17-.91,.38-1.55,.4-2.2,.19-5.91,.71-6.63,6.43-7.1,5.63-.45,10.54-1.74,12.52-7.95,.2-.64,1.56-1.4,2.27-1.3,5.45,.76,11.18,.94,16.22,2.86,4.21,1.61,7.59,.12,9.54-2.02,2.61-2.86,5.82-4.21,8.86-6.04,1.79-1.08,2.82-2.33,3.38-4.31,.32-1.15,1.07-2.69,2.02-3.06,3.51-1.4,7.22-2.26,10.75-3.6,1.06-.4,2.42-1.62,2.54-2.59,.31-2.63,1.05-4.51,3.76-5.55,2.75-1.05,4.69,.29,6.09,2.02l4.76-140.56c-.92,1.56-2.09,2.97-2.98,4.54Zm-169.39-12.28c-1.47-1.3-2.3-3.55-4.93-3.18-.26,.04-.95-1.14-1-1.79-.07-.92,.25-1.88,.41-2.81,2.43-.37,5.28-.98,6.67,1.93,.91,1.91,1.02,4.21,1.66,7.15-1.61-.74-2.21-1.02-2.81-1.3Zm45.47,1.04c-.23-.02-.46-.04-.69-.06,.11-1.81,.23-3.62,.34-5.43l2.97-.05c-.95,1.99-1.79,3.77-2.63,5.54Z"/><path d="M249.18,186.93c3.97,4.72,3.98,5.9-.47,9.18-2.01,1.48-2.92,3.29-2.97,5.61-.08,4.37-3.34,6.71-5.96,9.44-.28,.29-1.18,.28-1.59,.05-.41-.24-.79-.92-.79-1.41,0-.67,.43-1.34,.56-2.03,.56-3.02,.88-5.72-2.23-8.02-4.3-3.17-8.07-6.89-9.01-12.71-.22-1.38-2.11-2.49-3.79-4.35,3.15-2.47,6.38-5.46,10.06-7.7,2.44-1.49,4.62-2.85,5.52-5.64,.6-1.87,1.55-2.17,3.42-1.54,1.78,.6,2.86,1.03,2.31,3.28-.4,1.63-.62,3.55-.12,5.09,.96,2.97-.81,4.38-2.6,5.92-.61,.52-1.49,.8-1.96,1.41-1.17,1.52-3.05,3.19-2.99,4.74,.05,1.28,2.29,2.86,3.88,3.59,2.23,1.01,4.6,.6,6.3-1.48,.87-1.06,1.59-2.24,2.42-3.44Z"/><g><path class="e" d="M371.64,484.94c-1.75-.14-3.59,.08-5.47,.5-3.4,.75-6.24,.56-8.67-2.45-1.41-1.74-3.34-3.08-6.09-2.02-2.71,1.04-3.44,2.92-3.76,5.55-.12,.98-1.48,2.19-2.54,2.59-3.53,1.34-7.25,2.2-10.75,3.6-.95,.38-1.69,1.91-2.02,3.06-.56,1.98-1.59,3.23-3.38,4.31-3.04,1.83-6.24,3.18-8.86,6.04-1.96,2.14-5.33,3.63-9.54,2.02-5.04-1.92-10.77-2.1-16.22-2.86-.71-.1-2.07,.67-2.27,1.3-1.98,6.2-6.88,7.49-12.52,7.95-5.72,.46-6.24,1.18-6.43,7.1-.02,.65-.23,1.29-.4,2.2-3.46-1.96-4.91-6.24-9.47-6.16-4.82,.08-5.86,4.26-8.38,7.46-1.78-3.36-3.17-6.33-4.87-9.12-1.89-3.1-3.67-6.42-6.2-8.93-3.05-3.02-3.9-6.57-3.83-10.39,.05-2.9-1.37-3.84-3.7-4.38-.96-.22-1.9-.52-2.88-.79,2.01-7.15-2.26-11.83-5.89-16.73-1.49-2.02-2.98-4.03-4.51-6.02-2.79-3.64-5.51-7.33-8.43-10.86-1.64-1.97-5.56-1.07-6.87,1.27-.89,1.6-2.01,3.07-3.02,4.59-.54-.21-1.08-.42-1.61-.63,.42-2.24,.47-4.63,1.34-6.67,1.01-2.36,2.09-4.43,1.41-7.17-.36-1.46-.02-3.19,.35-4.72,.52-2.15-.41-4.2-2.64-4.87-4.9-1.48-9.72-3.29-15.02-1.51-3.39,1.14-5.73-.95-7.74-3.33-.35-.42-.5-1.47-.23-1.89,1.19-1.84,2.24-4.12,3.98-5.2,2.41-1.49,2.97-3.34,2.31-5.58-2.09-7.11,1.11-12.5,5.19-17.78,3.47-4.51,5.22-9.57,3.58-15.3-.29-1.02-.84-2.18-1.64-2.8-3.61-2.79-7.68-5.06-10.94-8.19-2.53-2.43-4.1-5.85-6.24-9.05,4.17-2.69,9.02-4.88,6.51-11.41,.96,.12,1.52,.03,1.87,.26,4.56,3.04,8.86,1.14,13.3-.41,1.49-.52,3.35-.2,5.01-.02,4.72,.5,7.45-.9,7.36-4.89-.05-2.21-1.63-4.81-3.29-6.47-2.15-2.17-5.02-3.63-7.64-5.3-3.3-2.1-6.66-4.1-9.99-6.14,.6,.28,1.21,.56,2.82,1.3-.65-2.93-.75-5.23-1.66-7.15-1.39-2.91-4.24-2.3-6.67-1.93-.15,.93-.48,1.89-.41,2.81,.05,.65,.73,1.83,1,1.79,2.7-.38,3.5,1.99,5.04,3.27-3.66-.64-7.42-.96-10.95-2.03-2.59-.78-5.02-2.37-7.28-3.94-1.59-1.11-2.84-1.32-4.73-.8-1.28,.35-3.04-.2-4.31-.87-1.83-.98-3.27-2.68-5.1-3.63-2.42-1.25-4.98-1.73-7.79-.59-3.69,1.5-6.89-.42-9.9-2.26-3.15-1.92-6-1.86-8.96,.37-2.55,1.92-5.32,1.38-8.04,.27-1.44-.59-3.3-2.12-4.19-1.67-1.87,.95-3.87,2.64-4.66,4.52-1.67,3.98-4.97,5.9-8.25,7.99-.93,.59-2.12,.79-3.01,1.41-4.55,3.19-9.37,4.31-14.88,2.8-2.72-.75-5.32-.13-7.31,2.38-2.55,3.2-4.85,7.02-8.19,9.05-3.54,2.15-3.43,5.09-4.13,8.1-.65,2.78-2.72,3.87-5.23,4.39-1.67,.35-3.43,.4-3.71,2.72-.06,.46-.77,.9-1.25,1.25-4.35,3.14-6.63,7.53-7.1,12.72-.42,4.64-2.55,8.41-4.94,12.2-.94,1.5-1.63,3.44-1.61,5.18,.03,3.2-.46,5.89-3.01,8.16-2.71,2.41-3.63,7.82-2.11,10.98,.67,1.41,2.1,2.62,.31,4.25-.21,.19,.29,1.17,.78,2.9,2.76-3.08,5.46-5.26,6.99-8.08,1.26-2.33,1.44-5.4,1.52-8.16,.07-2.61,1.39-3.78,3.43-4.79,1.31-.65,2.47-1.6,3.3-2.15,2.04,1.94,3.99,4.29,6.42,5.89,1.23,.81,3.53,.75,5,.18,1.29-.5,2.54-1.93,3.46-.34,.76,1.32,1.22,3.65,.54,4.77-1.23,2.04-3.16,3.93-5.24,5.13-2.89,1.68-6.39,2.33-9.24,4.05-2.13,1.29-4.01,3.35-5.37,5.47-3.98,6.21-10.29,9.51-16.2,13.24-1.45,.91-3.81,.65-5.72,.5-3.27-.25-6.51-1.1-9.77-1.17-1.39-.03-3.39,.94-4.08,2.08-1.24,2.04-2.33,2.4-4.57,1.79-2.83-.76-5.83-.91-9.17-1.38,.07-.54,.08-1.4,.32-2.18,.32-1.06,.89-2.04,1.24-3.09,2.1-6.32,2.48-6.97-3.33-9.77,.42-2.64,1.73-4.4,4.36-5.45,1.16-.46,2.07-1.81,2.83-2.94,1.5-2.23,3.23-3.18,6.1-2.86,1.88,.21,3.93-.82,5.87-1.41,3.04-.92,6.04-1.93,9.06-2.92,3.89-1.27,5.02-4.37,2.76-7.75-1.58-2.35-.91-4.52,.1-6.83,.83-1.9,1.18-4,2.04-5.88,.8-1.76,1.97-3.36,3.01-5.01,2.07-3.27,5.25-6.12,4.67-10.44-.24-1.82-.93-4.03-2.21-5.19-5.27-4.77-10.84-9.21-16.09-13.6,.41-3.64,1.18-7.74,1.23-11.84,.03-2.59-.12-4.69,1.78-6.99,2.4-2.91,3.65-6.75,5.92-9.8,1.91-2.56,4.58-4.56,6.8-6.7,.48-6.18-3.78-9.63-7.59-13.36-1.3-1.28-.21-3.95,2.01-6.01,6.91-6.41,13.73-12.9,20.55-19.41,4.43-4.23,8.51-8.88,13.26-12.69,4.11-3.29,9.18-5.37,13.4-8.55,3.82-2.88,8.05-5.48,10.14-10.31,.5-1.17,2.76-1.75,4.32-2.25,5.21-1.68,8.96-4.76,10.62-10.14,.59-1.92-.05-3.03-1.68-3.95-1.2-.68-2.41-1.47-3.33-2.47-.47-.51-.53-1.66-.35-2.42,.38-1.6,1.48-3.12,1.49-4.68,.03-3.33,1.93-5.5,3.85-7.8,.75-.9,1.61-1.99,1.74-3.07,.38-3.29,.52-6.61,.55-9.92,0-.87-.56-1.88-1.14-2.59-1.91-2.32-4.01-4.49-5.88-6.84-.35-.44-.23-1.63,.13-2.2,1.32-2.14,2.9-4.12,4.24-6.25,3.41-5.43,8.63-7.95,14.53-9.84,5.08-1.63,9.89-4.1,14.88-6.01,1.53-.59,3.34-.42,4.94-.87,1.27-.36,2.85-.82,3.54-1.78,1.69-2.32,3.07-4.9,4.36-7.47,1.32-2.63,2.88-4.57,6.15-4.82,1.2-.09,3.1-1.11,3.28-1.99,.23-1.12-.91-2.56-1.56-3.81-.43-.84-1.04-1.59-1.76-2.67,4.26-.96,7.14-2.79,6.52-7.58,2.27-.31,4.95,0,6.68-1.14,1.33-.87,1.46-3.56,2.12-5.44l-.93-.4c1.06-1.07,2.1-2.15,3.18-3.21,.43-.42,.9-1.09,1.38-1.11,8.3-.42,12.42-7.45,18.27-11.67,1.27-.92,1.62-3.11,2.5-4.95l-3.64-1.05c.62-.62,.97-1.26,1.37-1.3,3.72-.38,5.29-3.12,6.53-6.04,1.55-3.64,4.66-5.6,7.59-7.87,2.76-2.14,5.27-4.61,7.87-6.96,.27-.24,.47-.72,.45-1.08-.17-4.2-.39-8.39-.63-13.29,2.19-.77,5.24-1.68,8.15-2.92,2.19-.94,4.65-1.6,5.27-4.66,.65-3.2,2.31-5.65,6.04-6.26,2.93-.48,4.84-6.45,3.09-9.35-.87-1.43-1.98-2.75-3.15-3.97-3.61-3.76-8.1-2.85-11.72-.85-6.41,3.53-12.97,2.49-20.55,2.28,.51-2.33,.82-4.39,1.44-6.34,.48-1.51,1.25-2.94,2.06-4.31,.78-1.32,1.78-2.5,2.67-3.76,1.04-1.49,2.26-2.9,3.04-4.52,.89-1.86,1.12-3.56,3.81-4.39,3.12-.96,6.05-3.19,8.42-5.53,.86-.84,0-3.62-.39-5.45-.22-1.03-1.17-1.88-1.67-2.87-1.25-2.48-.04-5.86,2.61-6.39,2.11-.42,4.41-.27,6.56,.05,2.07,.31,4.05,1.2,6.09,1.77,4.27,1.2,8.37,1.58,12.46-1.07,2.69-1.74,5.73-1.42,7.95,1.22,2.04,2.43,4.45,3.34,8.22,2.2-.55,1.78-.85,3.06-1.34,4.28-.59,1.5-1.53,2.88-1.97,4.41-1.04,3.66,.02,5.56,3.66,6.55,2.96,.81,6.01,1.27,8.98,2.05,.89,.23,1.68,.97,2.43,1.59,1.89,1.55,3.33,2.38,6,.53,4.96-3.44,10.92-3.85,16.88-3.8,1.39,5.12,4.97,6.81,8.49,6.57,3.89,4.02,7.07,7.39,10.37,10.64,.48,.47,1.57,.27,2.27,.59,1.17,.55,2.58,1.03,3.32,1.98,1.91,2.46,5.8,4.2,8.9,3.53,.88-.19,1.74-.51,2.62-.72,5.06-1.21,5.95-.54,6.24,4.54,.2,3.5,1.27,6.62,4.28,8.68-.12,.34-.2,.69-.26,.69-3.58-.19-5.52,2.28-7.79,4.45-.95,.91-2.86,1.27-4.27,1.14-6.5-.59-12.97-1.55-19.47-2.11-1.9-.16-2.99-.41-3.29-2.52-.13-.94-1.15-2.53-1.63-2.48-1.02,.1-2.25,.87-2.88,1.74-2.98,4.07-6.56,7.4-11.19,9.44-5.84,2.57-11.94,2.82-18.12,1.54-.74-.15-1.47-.67-2.06-1.19-2.56-2.27-7.25-3.15-10.15-1.36-1.01,.62-1.67,2.42-1.78,3.74-.19,2.25-.01,4.35-2.61,5.5-.52,.23-.69,1.74-.66,2.64,.05,1.36,.42,2.72,.8,4.96-6.08-.21-11.67-.28-17.24-.65-1.96-.13-2.54,.25-3.34,2.22-1.71,4.23-3.33,9.27-6.64,11.86-2.75,2.15-6.35,3.15-8.28,6.65-.34,.61-2.45,.5-3.68,.3-3.2-.51-5.9-.17-8.09,2.66-2.7,3.49-5.98,6.22-10.7,6.7-.52,.05-1.47,1.93-1.21,2.55,1.9,4.65,2.26,8.96-.96,13.32-.69,.94,.14,3,.26,4.54,1.14-.12,2.4,.04,3.39-.41,3.76-1.72,7.31-3.97,11.18-5.37,3.59-1.3,7.47-1.8,11.24-2.62,6.06-1.31,9.88,3.37,14.61,5.6,.58,.28,.97,1.5,1.01,2.31,.16,3.64,.27,7.29,.15,10.93-.03,.81-.95,2.19-1.62,2.29-8.09,1.22-12.51,6.25-14.59,14.01-3.42-2.32-6.04-.96-8.96,1.03-3.05,2.08-5.64,4.93-9.82,5.44-2.58,.31-5.09,2.05-7.39,3.52-2.49,1.6-3.22,4.24-3.16,7.15,.09,4.32-.02,4.11-4.22,5.13-1.15,.28-1.87,2.3-2.46,3.76-7.36,3.07-12.68,8.32-16.1,15.81-1.49,3.28-3.75,6.21-5.68,9.29-.16,.25-.38,.63-.61,.65-3.45,.34-4.78,3.29-6.83,5.4-1.94,1.99-4.06,3.8-6.13,5.66-.51,.46-1.11,1.1-1.71,1.14-3.66,.24-5.27,3.02-7.36,5.59,.43,.46,.93,.81,1.17,1.29,1.5,2.9,3.13,3.53,5.87,1.94,2.96-1.72,5.7-3.85,8.76-5.35,1.77-.87,4.13-1.52,5.97-1.11,6.34,1.4,6.3,1.6,10.66-2.83,1.49,1.3,3.41,1.6,4.01,4.44,.8,3.82,10.33,5.36,13.38,2.78,.67-.57,2.19-.84,2.95-.48,8.32,3.95,10.48,2.71,10.8-6.39,.04-.99,.19-1.98,.37-3.66-1.15,.61-1.87,1.09-2.66,1.38-.61,.22-1.46,.46-1.91,.19-.35-.21-.5-1.28-.3-1.8,1.53-4.09,1.37-8.88,5.07-12.1,.34-.3,.14-1.81-.31-2.3-.92-1-2.11-1.79-3.32-2.43-.44-.23-1.24,.24-2.24-.24l4.81-3.73c-1.7-.91-2.99-1.6-4.69-2.51,2.28-1.45,4.44-2.82,6.9-4.38,.97,1.01,1.92,2,2.88,2.98,1.34,1.38,2.44,3.25,4.06,4.05,7.14,3.52,6.39,10.32,7.09,16.47,.12,1.03-.93,2.23-1.55,3.29-.93,1.58-2.55,3.01-2.82,4.67-.79,4.92-3.02,8.89-6.44,12.39-2.02,2.06-4.05,4.09-.8,7.11,.68,.63,.02,3.63-.91,4.88-3.36,4.55-7.22,8.73-10.62,13.25-1.25,1.66-2.21,3.81-2.54,5.86-.67,4.13-2.17,5.08-6.21,3.77-1.22-.4-3.04-.15-4.15,.52-4.29,2.61-6.43,6.22-5.43,11.62,.86,4.62,.92,9.39,1.37,14.49,1.29-.43,2.37-1.03,3.47-1.07,1.01-.04,2.04,.54,3.81,1.06,.04-.02,.88-.31,1.66-.73,2-1.06,3.57-.84,5.49,.64,1.85,1.42,4.29,2.11,6.52,2.98,2.39,.94,2.68,1.83,.93,3.65-2.22,2.31-4.57,4.49-6.66,6.91-.71,.82-.78,2.19-1.23,3.6-2.26,.53-3.71-1.31-5.56-2.41-1.16-.69-2.96-1.02-4.17-.61-.74,.25-.97,2.19-1.27,3.41-.1,.39,.23,.97,.5,1.35,1.27,1.76,2.65,3.45,3.89,5.23,1.74,2.5,5.72,1.89,8.24-1.24,1.2-1.49,2.51-2.89,3.79-4.31,1.18-1.31,2.36-1.31,3.62-.03,3.81,3.88,7.97,7.12,13.53,8.19,1.87,.36,2.95,5.63,1.88,8.03-1.33,2.98-1.1,3.69,2.01,5.29-1.05,.23-1.84,.4-3.1,.67,1.86,.97,3.28,1.71,4.7,2.45l.08,1.1c2.75-1.73,5.78-3.16,8.14-5.32,1.29-1.18,1.45-3.6,2.12-5.45-.12,1.84-.23,3.68-.35,5.53l.69,.06c.84-1.77,1.68-3.55,2.63-5.54l-3.06,.05c2.31-3.68,5.27-6.33,9.92-6.44,5.49-.13,9.37-3.14,12.01-7.58,1.8-3.03,4.15-5.08,7.19-6.62,1.25-.63,2.29-1.66,3.46-2.44,.55-.37,1.51-1.02,1.75-.84,3.39,2.58,5.86-.25,8.62-1.35,.18-.07,.4-.05,1.16-.14,.55,2.54,1.08,5.15,1.68,7.75,1.21,5.25,.25,9.83-3.6,13.84-.75,.78-.58,2.55-.61,3.87-.07,2.8,1.43,5.81-1.09,8.23-.69,.67-1.63,1.2-2.55,1.48-3.33,1.01-4.47,3.56-2.4,6.49,1.81,2.56,1.44,4.64,.59,7.53-.97,3.31-1.87,7.22,1.58,10.37,1.02,.93,1.02,3.07,1.33,4.69,.48,2.49,.82,5.01,1.3,7.97,3.97,2.12,8.56,.31,9.07-4.67,.43-4.28,2.72-6.68,6.07-8.63,2.65-1.54,4.36-.62,4.49,2.42,.05,1.21,0,2.46,.3,3.62,.66,2.51,4.14,3.75,6.33,2.24,3.88-2.69,7.64-5.54,11.5-8.26,4.82-3.39,10.04-5.22,15.82-2.83,5.54,2.29,10.75,2.15,15.73-1.31,.99-.68,1.97-1.43,2.75-2.33,1.52-1.74,1.57-3.41-.58-4.79-.56-.36-1.02-.85-1.55-1.29,2.92-3.75,6.86-2.67,10.41-2.5,1.81,.08,2.81-.23,3.67-1.75,.89-1.57,2.06-2.98,2.98-4.54,2.24-3.79,4.95-4.64,8.65-2.28"/><path class="e" d="M243.75,187.02c3.97,4.72,3.98,5.9-.47,9.18-2.01,1.48-2.92,3.29-2.97,5.61-.08,4.37-3.34,6.71-5.96,9.44-.28,.29-1.18,.28-1.59,.05-.41-.24-.79-.92-.79-1.41,0-.67,.43-1.34,.56-2.03,.56-3.02,.88-5.72-2.23-8.02-4.3-3.17-8.07-6.89-9.01-12.71-.22-1.38-2.11-2.49-3.79-4.35,3.15-2.47,6.38-5.46,10.06-7.7,2.44-1.49,4.62-2.85,5.52-5.64,.6-1.87,1.55-2.17,3.42-1.54,1.78,.6,2.86,1.03,2.31,3.28-.4,1.63-.62,3.55-.12,5.09,.96,2.97-.81,4.38-2.6,5.92-.61,.52-1.49,.8-1.96,1.41-1.17,1.52-3.05,3.19-2.99,4.74,.05,1.28,2.29,2.86,3.88,3.59,2.23,1.01,4.6,.6,6.3-1.48,.87-1.06,1.59-2.24,2.42-3.44Z"/></g><g class="g"><path d="M259.81,441.14c-1.66-3.35-4.52-4.12-6.64-.03-2.8-3.49-5.27-7.14-6.33-11.53-.63-2.58-.96-5.21-.35-7.85,.79-3.41,2.38-6.2,5.89-7.51,3.89-1.46,8.62-.47,11.12,2.42,1.71,1.98,2.44,4.36,2.65,6.93,.36,4.37-.82,8.4-2.93,12.16-1.02,1.82-2.21,3.54-3.4,5.43Z"/><path d="M256.47,445.8c-.43-.63-.84-1.24-1.25-1.84-.39-.57-.75-1.15-1.18-1.69-.36-.45-.47-.86-.11-1.34,.05-.06,.07-.14,.11-.21,.59-1.02,1.29-1.98,2.62-1.83,1.36,.16,2,1.26,2.53,2.38,.07,.14,.06,.38-.02,.51-.77,1.26-1.57,2.5-2.37,3.75-.05,.08-.16,.12-.34,.26Z"/></g><g><path class="d" d="M256.44,441.73c-1.65-2.96-4.51-3.63-6.64-.02-2.8-3.08-5.25-6.3-6.31-10.18-.62-2.28-.95-4.6-.33-6.94,.8-3.02,2.39-5.48,5.9-6.65,3.89-1.29,8.62-.43,11.12,2.12,1.71,1.75,2.43,3.85,2.64,6.12,.35,3.87-.83,7.42-2.96,10.76-1.02,1.61-2.22,3.13-3.41,4.8Z"/><path class="d" d="M253.09,445.85c-.43-.56-.83-1.09-1.24-1.62-.39-.5-.75-1.02-1.18-1.49-.36-.4-.47-.76-.11-1.19,.05-.06,.07-.12,.11-.18,.59-.9,1.29-1.76,2.62-1.62,1.36,.14,1.99,1.11,2.52,2.1,.07,.12,.06,.34-.02,.45-.78,1.11-1.57,2.22-2.37,3.32-.05,.07-.16,.11-.34,.23Z"/></g><g class="g"><path d="M237.02,379.45c-1.66-3.35-4.52-4.12-6.64-.03-2.8-3.49-5.27-7.14-6.33-11.53-.63-2.58-.96-5.21-.35-7.85,.79-3.41,2.38-6.2,5.89-7.51,3.89-1.46,8.62-.47,11.12,2.42,1.71,1.98,2.44,4.36,2.65,6.93,.36,4.37-.82,8.4-2.93,12.16-1.02,1.82-2.21,3.54-3.4,5.43Z"/><path d="M233.68,384.11c-.43-.63-.84-1.24-1.25-1.84-.39-.57-.75-1.15-1.18-1.69-.36-.45-.47-.86-.11-1.34,.05-.06,.07-.14,.11-.21,.59-1.02,1.29-1.98,2.62-1.83,1.36,.16,2,1.26,2.53,2.38,.07,.14,.06,.38-.02,.51-.77,1.26-1.57,2.5-2.37,3.75-.05,.08-.16,.12-.34,.26Z"/></g><g><path class="d" d="M233.65,380.04c-1.65-2.96-4.51-3.63-6.64-.02-2.8-3.08-5.25-6.3-6.31-10.18-.62-2.28-.95-4.6-.33-6.94,.8-3.02,2.39-5.48,5.9-6.65,3.89-1.29,8.62-.43,11.12,2.12,1.71,1.75,2.43,3.85,2.64,6.12,.35,3.87-.83,7.42-2.96,10.76-1.02,1.61-2.22,3.13-3.41,4.8Z"/><path class="d" d="M230.3,384.17c-.43-.56-.83-1.09-1.24-1.62-.39-.5-.75-1.02-1.18-1.49-.36-.4-.47-.76-.11-1.19,.05-.06,.07-.12,.11-.18,.59-.9,1.29-1.76,2.62-1.62,1.36,.14,1.99,1.11,2.52,2.1,.07,.12,.06,.34-.02,.45-.78,1.11-1.57,2.22-2.37,3.32-.05,.07-.16,.11-.34,.23Z"/></g><g class="g"><path d="M136.58,314.13c-1.66-3.35-4.52-4.12-6.64-.03-2.8-3.49-5.27-7.14-6.33-11.53-.63-2.58-.96-5.21-.35-7.85,.79-3.41,2.38-6.2,5.89-7.51,3.89-1.46,8.62-.47,11.12,2.42,1.71,1.98,2.44,4.36,2.65,6.93,.36,4.37-.82,8.4-2.93,12.16-1.02,1.82-2.21,3.54-3.4,5.43Z"/><path d="M133.25,318.78c-.43-.63-.84-1.24-1.25-1.84-.39-.57-.75-1.15-1.18-1.69-.36-.45-.47-.86-.11-1.34,.05-.06,.07-.14,.11-.21,.59-1.02,1.29-1.98,2.62-1.83,1.36,.16,2,1.26,2.53,2.38,.07,.14,.06,.38-.02,.51-.77,1.26-1.57,2.5-2.37,3.75-.05,.08-.16,.12-.34,.26Z"/></g><g><path class="d" d="M133.21,314.72c-1.65-2.96-4.51-3.63-6.64-.02-2.8-3.08-5.25-6.3-6.31-10.18-.62-2.28-.95-4.6-.33-6.94,.8-3.02,2.39-5.48,5.9-6.65,3.89-1.29,8.62-.43,11.12,2.12,1.71,1.75,2.43,3.85,2.64,6.12,.35,3.87-.83,7.42-2.96,10.76-1.02,1.61-2.22,3.13-3.41,4.8Z"/><path class="d" d="M129.87,318.84c-.43-.56-.83-1.09-1.24-1.62-.39-.5-.75-1.02-1.18-1.49-.36-.4-.47-.76-.11-1.19,.05-.06,.07-.12,.11-.18,.59-.9,1.29-1.76,2.62-1.62,1.36,.14,1.99,1.11,2.52,2.1,.07,.12,.06,.34-.02,.45-.78,1.11-1.57,2.22-2.37,3.32-.05,.07-.16,.11-.34,.23Z"/></g><g class="g"><path d="M46.94,409.22c-1.66-3.35-4.52-4.12-6.64-.03-2.8-3.49-5.27-7.14-6.33-11.53-.63-2.58-.96-5.21-.35-7.85,.79-3.41,2.38-6.2,5.89-7.51,3.89-1.46,8.62-.47,11.12,2.42,1.71,1.98,2.44,4.36,2.65,6.93,.36,4.37-.82,8.4-2.93,12.16-1.02,1.82-2.21,3.54-3.4,5.43Z"/><path d="M43.61,413.88c-.43-.63-.84-1.24-1.25-1.84-.39-.57-.75-1.15-1.18-1.69-.36-.45-.47-.86-.11-1.34,.05-.06,.07-.14,.11-.21,.59-1.02,1.29-1.98,2.62-1.83,1.36,.16,2,1.26,2.53,2.38,.07,.14,.06,.38-.02,.51-.77,1.26-1.57,2.5-2.37,3.75-.05,.08-.16,.12-.34,.26Z"/></g><g><path class="d" d="M43.57,409.81c-1.65-2.96-4.51-3.63-6.64-.02-2.8-3.08-5.25-6.3-6.31-10.18-.62-2.28-.95-4.6-.33-6.94,.8-3.02,2.39-5.48,5.9-6.65,3.89-1.29,8.62-.43,11.12,2.12,1.71,1.75,2.43,3.85,2.64,6.12,.35,3.87-.83,7.42-2.96,10.76-1.02,1.61-2.22,3.13-3.41,4.8Z"/><path class="d" d="M40.23,413.93c-.43-.56-.83-1.09-1.24-1.62-.39-.5-.75-1.02-1.18-1.49-.36-.4-.47-.76-.11-1.19,.05-.06,.07-.12,.11-.18,.59-.9,1.29-1.76,2.62-1.62,1.36,.14,1.99,1.11,2.52,2.1,.07,.12,.06,.34-.02,.45-.78,1.11-1.57,2.22-2.37,3.32-.05,.07-.16,.11-.34,.23Z"/></g><g class="g"><path d="M130.47,241.42c-1.66-3.35-4.52-4.12-6.64-.03-2.8-3.49-5.27-7.14-6.33-11.53-.63-2.58-.96-5.21-.35-7.85,.79-3.41,2.38-6.2,5.89-7.51,3.89-1.46,8.62-.47,11.12,2.42,1.71,1.98,2.44,4.36,2.65,6.93,.36,4.37-.82,8.4-2.93,12.16-1.02,1.82-2.21,3.54-3.4,5.43Z"/><path d="M127.14,246.08c-.43-.63-.84-1.24-1.25-1.84-.39-.57-.75-1.15-1.18-1.69-.36-.45-.47-.86-.11-1.34,.05-.06,.07-.14,.11-.21,.59-1.02,1.29-1.98,2.62-1.83,1.36,.16,2,1.26,2.53,2.38,.07,.14,.06,.38-.02,.51-.77,1.26-1.57,2.5-2.37,3.75-.05,.08-.16,.12-.34,.26Z"/></g><g><path class="d" d="M127.1,242.01c-1.65-2.96-4.51-3.63-6.64-.02-2.8-3.08-5.25-6.3-6.31-10.18-.62-2.28-.95-4.6-.33-6.94,.8-3.02,2.39-5.48,5.9-6.65,3.89-1.29,8.62-.43,11.12,2.12,1.71,1.75,2.43,3.85,2.64,6.12,.35,3.87-.83,7.42-2.96,10.76-1.02,1.61-2.22,3.13-3.41,4.8Z"/><path class="d" d="M123.76,246.14c-.43-.56-.83-1.09-1.24-1.62-.39-.5-.75-1.02-1.18-1.49-.36-.4-.47-.76-.11-1.19,.05-.06,.07-.12,.11-.18,.59-.9,1.29-1.76,2.62-1.62,1.36,.14,1.99,1.11,2.52,2.1,.07,.12,.06,.34-.02,.45-.78,1.11-1.57,2.22-2.37,3.32-.05,.07-.16,.11-.34,.23Z"/></g><g><path d="M61.38,385.82l-.18,.91-.11,.03c-.56-.45-1.2-.67-1.92-.66-.79,.01-1.38,.29-1.8,.84-.41,.55-.61,1.34-.59,2.38s.24,1.85,.67,2.39c.43,.55,1.03,.81,1.8,.8,.36,0,.72-.08,1.08-.22s.68-.33,.98-.57l.13,.06-.07,.94c-.71,.41-1.44,.62-2.18,.63-1.07,.02-1.9-.31-2.49-.99-.6-.68-.91-1.66-.93-2.94s.27-2.33,.87-3.05c.6-.72,1.46-1.09,2.58-1.11,.83-.01,1.56,.17,2.18,.56Z"/><path d="M68,391.18l.06,1.93-.92,.02v-1.86l-.02-.84-3.36,.07v.76l.06,1.93-.92,.02v-1.86l-.1-4.31,.93-.02,.02,2.65,1.67-.02,1.68-.04-.07-2.65,.93-.02,.03,4.24Z"/><path d="M74.04,392.22l.08,.07-.07,.72-3.75,.06v-1.86l-.1-4.31,3.78-.06,.06,.07-.06,.72-1.56-.02-1.29,.03,.02,1.87h1.23l1.08-.06,.06,.09-.06,.73-1.14-.02-1.15,.03v.84l.03,1.18h1.21l1.65-.09Z"/><path d="M79.68,387.43l-3.53,4.82,2.59-.04,1.03-.12,.05,.06-.06,.79h-1.28l-2.8,.04-.63,.04v-.67l3.53-4.84-2.51,.04-.95,.12-.05-.07,.07-.78h1.12l2.89-.05,.53-.02v.69Z"/><path d="M91.44,392.73h-.89l-.23-2.4-.49-3.94h-.09l-2.11,5.49h-.82l-2.18-5.4h-.1l-.36,3.89-.17,2.49h-.84l.7-7.94,1.13-.02,.43,1.21,1.8,4.49h.07l1.73-4.63,.39-1.15,1.11-.02,.91,7.93Z"/><path d="M98.12,392.62l-.93,.02-.16-.67-.34-.91h-1.47l-1.31,.05-.32,.87-.16,.72-.92,.02,2.28-6.21,1.07-.02,2.27,6.13Zm-1.7-2.31l-1.08-2.91h-.07l-1.08,2.94h1.09l1.14-.04Z"/><path d="M106.22,392.48h-.83l-.17-1.87-.38-2.84h-.07l-1.7,4.07h-.73l-1.74-4h-.07l-.28,2.78-.14,1.96h-.79l.58-6.17,1.08-.02,.33,.92,1.41,3.3h.07l1.36-3.39,.31-.88,1.05-.02,.73,6.16Z"/><path d="M108.98,390.5l.06,1.93-.92,.02v-1.86l-.1-4.31,.93-.02,.03,4.24Z"/><path d="M115.08,391.54l.08,.07-.07,.72-3.75,.06v-1.86l-.1-4.31,3.78-.06,.06,.07-.06,.72-1.56-.02-1.29,.03,.02,1.87h1.23l1.08-.06,.06,.09-.06,.73-1.14-.02-1.15,.03v.84l.03,1.18h1.21l1.65-.09Z"/></g><g><path d="M229.77,456.65l.06,2.33-1.04,.02-4.22-6.29h-.06l.05,3.74,.06,2.61h-.89v-2.34l-.12-5.59,1.03-.02,4.21,6.29h.09l-.12-6.31,.93-.09,.03,5.64Z"/><path d="M236.34,453.42c.49,.52,.75,1.26,.76,2.23,.02,1.05-.23,1.86-.73,2.45-.51,.58-1.24,.88-2.2,.9-.89,.01-1.59-.24-2.08-.78-.5-.53-.75-1.3-.77-2.3s.23-1.82,.74-2.39c.51-.57,1.24-.86,2.19-.87,.9-.01,1.6,.24,2.09,.76Zm-3.61,.6c-.31,.38-.46,.97-.45,1.77,.01,.86,.18,1.48,.5,1.86,.32,.38,.8,.57,1.45,.56s1.15-.21,1.46-.59c.32-.39,.47-.98,.45-1.79s-.18-1.44-.51-1.82c-.32-.38-.81-.57-1.47-.56s-1.13,.21-1.45,.58Z"/><path d="M243.52,455.72v.89c.03,.7-.17,1.25-.6,1.65-.43,.4-1.05,.6-1.85,.61s-1.42-.17-1.84-.55c-.43-.38-.64-.92-.63-1.63v-.94l-.07-3.08,.93-.02v3.88c.01,.52,.15,.91,.42,1.17,.27,.26,.68,.38,1.21,.38s.93-.15,1.19-.42c.27-.27,.39-.66,.38-1.18l-.1-3.88,.94-.02,.02,3.13Z"/><path d="M248.1,458.68l-1.1,.02-2.26-6.13,.95-.02,.16,.68,1.67,4.54h.06l1.7-4.56,.14-.72,.93-.02-2.25,6.21Z"/><path d="M255.57,457.76l.08,.07-.07,.72-3.75,.06v-1.86l-.1-4.31,3.78-.06,.06,.07-.06,.72-1.56-.02-1.29,.03,.02,1.87h1.23l1.08-.06,.06,.09-.06,.73-1.14-.02-1.15,.03v.84l.03,1.18h1.21l1.65-.09Z"/><path d="M260.52,457.78l-.05,.69-3.28,.05v-1.86l-.1-4.31,.93-.02,.03,4.24,.04,1.15,2.38-.04,.05,.09Z"/><path d="M265.19,457.7l-.05,.69-3.28,.05v-1.86l-.1-4.31,.93-.02,.03,4.24,.04,1.15,2.38-.04,.05,.09Z"/><path d="M270.3,457.52l.08,.07-.07,.72-3.75,.06v-1.86l-.1-4.31,3.78-.06,.06,.07-.06,.72-1.56-.02-1.29,.03,.02,1.87h1.23l1.08-.06,.06,.09-.06,.73-1.14-.02-1.15,.03v.84l.03,1.18h1.21l1.65-.09Z"/><path d="M278.55,450.33l-.06,.77-1.39-.05h-.81l.04,4.68,.08,2.48-1,.02,.03-2.39-.14-4.76h-.81l-1.41,.11-.06-.1,.06-.77,5.39-.09,.08,.1Z"/><path d="M283.8,457.29l.08,.07-.07,.72-3.75,.06v-1.86l-.1-4.31,3.78-.06,.06,.07-.06,.72-1.56-.02-1.29,.03,.02,1.87h1.23l1.08-.06,.06,.09-.06,.73-1.14-.02-1.15,.03v.84l.03,1.18h1.21l1.65-.09Z"/><path d="M289.95,457.76v.12c-.36,.11-.64,.18-.86,.2l-.16-.1c-.64-.94-1.13-1.68-1.46-2.22l-1.16,.03v.31l.06,1.93-.92,.02v-1.86l-.1-4.31,2.11-.05c.65-.01,1.16,.13,1.51,.43,.36,.3,.54,.74,.55,1.32,0,.42-.1,.8-.32,1.13-.22,.33-.54,.6-.95,.8,.52,.76,1.09,1.51,1.71,2.24Zm-3.65-2.73l1.17,.02c.73-.22,1.09-.68,1.08-1.37,0-.36-.12-.63-.34-.81-.22-.18-.55-.27-.98-.28l-.95,.03,.03,2.42Z"/><path d="M296.09,457.66v.12c-.36,.11-.64,.18-.86,.2l-.16-.1c-.64-.94-1.13-1.68-1.46-2.22l-1.16,.03v.31l.06,1.93-.92,.02v-1.86l-.1-4.31,2.11-.05c.65-.01,1.16,.13,1.51,.43,.36,.3,.54,.74,.55,1.32,0,.42-.1,.8-.32,1.13-.22,.33-.54,.6-.95,.8,.52,.76,1.09,1.51,1.71,2.24Zm-3.65-2.73l1.17,.02c.73-.22,1.09-.68,1.08-1.37,0-.36-.12-.63-.34-.81-.22-.18-.55-.27-.98-.28l-.95,.03,.03,2.42Z"/><path d="M301.48,457l.08,.07-.07,.72-3.75,.06v-1.86l-.1-4.31,3.78-.06,.06,.07-.06,.72-1.56-.02-1.29,.03,.02,1.87h1.23l1.08-.06,.06,.09-.06,.73-1.14-.02-1.15,.03v.84l.03,1.18h1.21l1.65-.09Z"/></g><g><path d="M209.14,395.75l-.07,.74-3.91,.07,.02-2.39-.15-5.55,1.02-.02,.03,5.46,.06,1.65,2.94-.05,.08,.09Z"/><path d="M214.06,395.62l.08,.07-.07,.72-3.75,.06v-1.86l-.1-4.31,3.78-.06,.06,.07-.06,.72-1.56-.02-1.29,.03,.02,1.87h1.23l1.08-.06,.06,.09-.06,.73-1.14-.02-1.15,.03v.84l.03,1.18h1.21l1.65-.09Z"/><path d="M223.17,388.81l-.18,.94-.12,.03c-.4-.24-.77-.41-1.11-.52-.34-.1-.69-.15-1.06-.14-1.79,.03-2.67,1.15-2.63,3.37,.02,1.06,.24,1.84,.66,2.34,.43,.49,1.08,.73,1.95,.72,.23,0,.46-.03,.7-.07,.23-.05,.54-.13,.91-.25v-.93l-.02-1.19,.93-.09v1.13l.07,1.73c-.53,.17-1.01,.3-1.42,.38-.41,.08-.81,.12-1.2,.13-1.18,.02-2.07-.3-2.67-.96-.6-.66-.91-1.62-.93-2.88-.02-1.36,.29-2.41,.95-3.13,.66-.72,1.61-1.1,2.84-1.12,.83-.01,1.61,.16,2.34,.52Z"/><path d="M229.68,395.93v.12c-.36,.11-.64,.18-.86,.2l-.16-.1c-.64-.94-1.13-1.68-1.46-2.22l-1.16,.03v.31l.06,1.93-.92,.02v-1.86l-.1-4.31,2.11-.05c.65-.01,1.16,.13,1.51,.43,.36,.3,.54,.74,.55,1.32,0,.42-.1,.8-.32,1.13-.22,.33-.54,.6-.95,.8,.52,.76,1.09,1.51,1.71,2.24Zm-3.65-2.73l1.17,.02c.73-.22,1.09-.68,1.08-1.37,0-.36-.12-.63-.34-.81-.22-.18-.55-.27-.98-.28l-.95,.03,.03,2.42Z"/><path d="M236.12,396.04l-.93,.02-.16-.67-.34-.91h-1.47l-1.31,.05-.32,.87-.16,.72-.92,.02,2.28-6.21,1.07-.02,2.27,6.13Zm-1.7-2.31l-1.08-2.91h-.07l-1.08,2.94h1.09l1.14-.04Z"/><path d="M238.52,394.07l.06,1.93-.92,.02v-1.86l-.1-4.31,.93-.02,.03,4.24Z"/><path d="M245.95,394.03l.04,1.85-.99,.02-3.32-4.65h-.06l.03,2.65,.06,2.06h-.84v-1.81l-.09-4.35,.98-.02,3.32,4.65h.09l-.1-4.67,.85-.08,.03,4.35Z"/><path d="M249.11,393.9l.06,1.93-.92,.02v-1.86l-.1-4.31,.93-.02,.03,4.24Z"/><path d="M255.21,394.93l.08,.07-.07,.72-3.75,.06v-1.86l-.1-4.31,3.78-.06,.06,.07-.06,.72-1.56-.02-1.29,.03,.02,1.87h1.23l1.08-.06,.06,.09-.06,.73-1.14-.02-1.15,.03v.84l.03,1.18h1.21l1.65-.09Z"/><path d="M261.35,395.4v.12c-.36,.11-.64,.18-.86,.2l-.16-.1c-.64-.94-1.13-1.68-1.46-2.22l-1.16,.03v.31l.06,1.93-.92,.02v-1.86l-.1-4.31,2.11-.05c.65-.01,1.16,.13,1.51,.43,.36,.3,.54,.74,.55,1.32,0,.42-.1,.8-.32,1.13-.22,.33-.54,.6-.95,.8,.52,.76,1.09,1.51,1.71,2.24Zm-3.65-2.73l1.17,.02c.73-.22,1.09-.68,1.08-1.37,0-.36-.12-.63-.34-.81-.22-.18-.55-.27-.98-.28l-.95,.03,.03,2.42Z"/></g><g><path d="M40.12,303.66l-.07,.74-3.91,.07,.02-2.39-.15-5.55,1.02-.02,.03,5.46,.06,1.65,2.94-.05,.08,.09Z"/><path d="M45.03,303.53l.08,.07-.07,.72-3.75,.06v-1.86l-.1-4.31,3.78-.06,.06,.07-.06,.72-1.56-.02-1.29,.03,.02,1.87h1.23l1.08-.06,.06,.09-.06,.73-1.14-.02-1.15,.03v.84l.03,1.18h1.21l1.65-.09Z"/><path d="M53.28,296.34l-.06,.77-1.39-.05h-.81l.04,4.68,.08,2.48-1,.02,.03-2.39-.14-4.76h-.81l-1.41,.11-.06-.1,.06-.77,5.39-.09,.08,.1Z"/><path d="M58.7,298.64c.49,.52,.75,1.26,.76,2.23,.02,1.05-.23,1.86-.73,2.45-.51,.58-1.24,.88-2.2,.9-.89,.01-1.59-.24-2.08-.78-.5-.53-.75-1.3-.77-2.3s.23-1.82,.74-2.39c.51-.57,1.24-.86,2.19-.87,.9-.01,1.6,.24,2.09,.76Zm-3.61,.6c-.31,.38-.46,.97-.45,1.77,.01,.86,.18,1.48,.5,1.86,.32,.38,.8,.57,1.45,.56s1.15-.21,1.46-.59c.32-.39,.47-.98,.45-1.79s-.18-1.44-.51-1.82c-.32-.38-.81-.57-1.47-.56s-1.13,.21-1.45,.58Z"/><path d="M64.7,298.28c.36,.31,.54,.76,.55,1.35,.01,.69-.2,1.24-.64,1.64-.44,.4-1.04,.61-1.82,.62h-.76v.21l.06,1.93-.92,.02v-1.86l-.1-4.31,2.11-.05c.65-.01,1.16,.14,1.51,.45Zm-.42,1.44c0-.39-.12-.67-.34-.86s-.55-.28-.99-.29l-.94,.03,.03,2.56h1.04c.81-.15,1.22-.63,1.2-1.44Z"/><path d="M67.82,302.01l.06,1.93-.92,.02v-1.86l-.1-4.31,.93-.02,.03,4.24Z"/><path d="M75.25,301.97l.04,1.85-.99,.02-3.32-4.65h-.06l.03,2.65,.06,2.06h-.84v-1.81l-.09-4.35,.98-.02,3.32,4.65h.09l-.1-4.67,.85-.08,.03,4.35Z"/><path d="M82.36,303.7l-.93,.02-.16-.67-.34-.91h-1.47l-1.31,.05-.32,.87-.16,.72-.92,.02,2.28-6.21,1.07-.02,2.27,6.13Zm-1.7-2.31l-1.08-2.91h-.07l-1.08,2.94h1.09l1.14-.04Z"/><path d="M90.46,303.56h-.83l-.17-1.87-.38-2.84h-.07l-1.7,4.07h-.73l-1.74-4h-.07l-.28,2.78-.14,1.96h-.79l.58-6.17,1.08-.02,.33,.92,1.41,3.3h.07l1.36-3.39,.31-.88,1.05-.02,.73,6.16Z"/><path d="M96.6,301.71c0,.6-.21,1.05-.67,1.35-.46,.31-1.13,.47-2.02,.48-.54,0-1.05,0-1.55-.01v-1.86l-.1-4.31,1.93-.05c.62-.01,1.1,.11,1.45,.37,.35,.25,.52,.62,.53,1.1,0,.35-.08,.66-.25,.91s-.41,.44-.72,.58c.92,.17,1.39,.65,1.4,1.44Zm-1.37,.82c.28-.19,.42-.47,.41-.83,0-.3-.11-.53-.31-.69-.2-.16-.5-.27-.91-.32l-1.23,.03v.86l.05,1.23c.26,.02,.51,.03,.76,.02,.54,0,.95-.11,1.23-.3Zm-.35-4.29c-.2-.14-.52-.2-.96-.19h-.76l.02,1.92,1.1,.02c.3-.07,.53-.19,.68-.36,.15-.17,.22-.41,.22-.72s-.11-.53-.31-.66Z"/><path d="M102.73,297.91c.49,.52,.75,1.26,.76,2.23,.02,1.05-.23,1.86-.73,2.45-.51,.58-1.24,.88-2.2,.9-.89,.01-1.59-.24-2.08-.78-.5-.53-.75-1.3-.77-2.3s.23-1.82,.74-2.39c.51-.57,1.24-.86,2.19-.87,.9-.01,1.6,.24,2.09,.76Zm-3.61,.6c-.31,.38-.46,.97-.45,1.77,.01,.86,.18,1.48,.5,1.86,.32,.38,.8,.57,1.45,.56,.66-.01,1.15-.21,1.46-.59,.32-.39,.47-.98,.45-1.79s-.18-1.44-.51-1.82c-.32-.38-.81-.57-1.47-.56s-1.13,.21-1.45,.58Z"/><path d="M109.91,300.2v.89c.03,.7-.17,1.25-.6,1.65-.43,.4-1.05,.6-1.85,.61s-1.42-.17-1.84-.55c-.43-.38-.64-.92-.63-1.63v-.94l-.07-3.08,.93-.02v3.88c.01,.52,.15,.91,.42,1.17,.27,.26,.68,.38,1.21,.38s.93-.15,1.19-.42c.27-.27,.39-.66,.38-1.18l-.1-3.88,.94-.02,.02,3.13Z"/><path d="M116.52,302.91v.12c-.36,.11-.64,.18-.86,.2l-.16-.1c-.64-.94-1.13-1.68-1.46-2.22l-1.16,.03v.31l.06,1.93-.92,.02v-1.86l-.1-4.31,2.11-.05c.65-.01,1.16,.13,1.51,.43,.36,.3,.54,.74,.55,1.32,0,.42-.1,.8-.32,1.13-.22,.33-.54,.6-.95,.8,.52,.76,1.09,1.51,1.71,2.24Zm-3.65-2.73l1.17,.02c.73-.22,1.09-.68,1.08-1.37,0-.36-.12-.63-.34-.81-.22-.18-.55-.27-.98-.28l-.95,.03,.03,2.42Z"/></g><g><path d="M92.78,251.97l.02,2.76h1.34l1.29-.06,.08,.1-.07,.76h-1.38l-1.25,.02v1.03l.1,2.48-1,.02,.02-2.39-.15-5.55,4.22-.07,.08,.1-.07,.79-1.82-.03-1.39,.05Z"/><path d="M100.98,258.13l.08,.07-.07,.72-3.75,.06v-1.86l-.1-4.31,3.78-.06,.06,.07-.06,.72-1.56-.02-1.29,.03,.02,1.87h1.23l1.08-.06,.06,.09-.06,.73-1.14-.02-1.15,.03v.84l.03,1.18h1.21l1.65-.09Z"/><path d="M107.13,258.59v.12c-.36,.11-.64,.18-.86,.2l-.16-.1c-.64-.94-1.13-1.68-1.46-2.22l-1.16,.03v.31l.06,1.93-.92,.02v-1.86l-.1-4.31,2.11-.05c.65-.01,1.16,.13,1.51,.43,.36,.3,.54,.74,.55,1.32,0,.42-.1,.8-.32,1.13-.22,.33-.54,.6-.95,.8,.52,.76,1.09,1.51,1.71,2.24Zm-3.65-2.73l1.17,.02c.73-.22,1.09-.68,1.08-1.37,0-.36-.12-.63-.34-.81-.22-.18-.55-.27-.98-.28l-.95,.03,.03,2.42Z"/><path d="M115.33,258.68h-.83l-.17-1.87-.38-2.84h-.07l-1.7,4.07h-.73l-1.74-4h-.07l-.28,2.78-.14,1.96h-.79l.58-6.17,1.08-.02,.33,.92,1.41,3.3h.07l1.36-3.39,.31-.88,1.05-.02,.73,6.16Z"/><path d="M120.98,257.79l.08,.07-.07,.72-3.75,.06v-1.86l-.1-4.31,3.78-.06,.06,.07-.06,.72-1.56-.02-1.29,.03,.02,1.87h1.23l1.08-.06,.06,.09-.06,.73-1.14-.02-1.15,.03v.84l.03,1.18h1.21l1.65-.09Z"/><path d="M129.15,252.99c.51,.5,.77,1.21,.79,2.16,.02,1.08-.24,1.92-.78,2.5s-1.31,.89-2.33,.91c-.29,0-.63,0-1.03,0-.4,0-.78-.01-1.13-.02v-1.86l-.1-4.31,2.42-.09c.94-.02,1.67,.22,2.17,.72Zm-.66,4.18c.35-.41,.52-1.01,.51-1.82s-.19-1.38-.54-1.75c-.35-.37-.86-.56-1.55-.54-.4,0-.88,.03-1.42,.07l.03,3.46,.03,1.16c.24,.01,.49,.03,.76,.04,.26,.01,.48,.02,.66,.01,.66-.01,1.17-.22,1.52-.63Z"/><path d="M136.37,255.3v.89c.03,.7-.17,1.25-.6,1.65-.43,.4-1.05,.6-1.85,.61s-1.42-.17-1.84-.55c-.43-.38-.64-.92-.63-1.63v-.94l-.07-3.08,.93-.02v3.88c.01,.52,.15,.91,.42,1.17,.27,.26,.68,.39,1.21,.38s.93-.15,1.19-.42c.27-.27,.39-.66,.38-1.18l-.1-3.88,.94-.02,.02,3.13Z"/><path d="M142,255.61l.04,1.16c.01,.63-.14,1.15-.44,1.56-.31,.41-.85,.81-1.62,1.2l-.39-.55v-.12c.56-.32,.96-.62,1.2-.92,.23-.3,.35-.68,.34-1.13l-.02-1.08-.13-4.61-1.52,.04-.1-.08,.05-.73,2.55-.04,.04,5.32Z"/><path d="M148.56,252.68c.49,.52,.75,1.26,.76,2.23,.02,1.05-.23,1.86-.73,2.45-.51,.58-1.24,.88-2.2,.9-.89,.01-1.59-.24-2.08-.78-.5-.53-.75-1.3-.77-2.3s.23-1.82,.74-2.39c.51-.57,1.24-.86,2.19-.87,.9-.01,1.6,.24,2.09,.76Zm-3.61,.61c-.31,.38-.46,.97-.45,1.77,.01,.86,.18,1.48,.5,1.86,.32,.38,.8,.57,1.45,.56s1.15-.21,1.46-.59c.32-.39,.47-.98,.45-1.79s-.18-1.44-.51-1.83c-.32-.38-.81-.57-1.47-.56s-1.13,.21-1.45,.58Z"/><path d="M155.55,257.79v.12c-.36,.11-.64,.18-.86,.2l-.16-.1c-.64-.94-1.13-1.68-1.46-2.22l-1.16,.03v.31l.06,1.93-.92,.02v-1.86l-.1-4.31,2.11-.05c.65-.01,1.16,.13,1.51,.43,.36,.3,.54,.74,.55,1.32,0,.42-.1,.8-.32,1.13-.22,.33-.54,.6-.95,.8,.52,.76,1.09,1.51,1.71,2.24Zm-3.65-2.73l1.17,.02c.73-.22,1.09-.68,1.08-1.37,0-.36-.12-.63-.34-.81-.22-.18-.55-.27-.98-.28l-.95,.03,.03,2.42Z"/><path d="M162,257.91l-.93,.02-.16-.67-.34-.91h-1.47l-1.31,.05-.32,.87-.16,.72-.92,.02,2.28-6.21,1.07-.02,2.27,6.13Zm-1.7-2.31l-1.08-2.91h-.07l-1.08,2.94h1.09l1.14-.04Z"/><path d="M168.62,255.95l.04,1.85-.99,.02-3.32-4.65h-.06l.03,2.65,.06,2.06h-.84v-1.81l-.09-4.35,.98-.02,3.32,4.65h.09l-.1-4.67,.85-.08,.03,4.35Z"/></g></g></g></g></svg>