<?xml version="1.0" encoding="UTF-8"?><svg xmlns="http://www.w3.org/2000/svg" viewBox="0 0 301.21 25.2"><defs><style>.d{fill:#766143;}</style></defs><g id="a"/><g id="b"><g id="c"><g><path class="d" d="M14.88,1.23l-.65,3.61-.61,.23c-.82-.59-1.66-1.05-2.53-1.38-.87-.33-1.7-.5-2.49-.5-1.25,0-2.25,.34-2.99,1.04-.74,.69-1.11,1.5-1.11,2.42s.37,1.63,1.11,2.21c.74,.58,1.9,1.23,3.49,1.98,1.38,.67,2.5,1.27,3.36,1.8,.86,.54,1.59,1.25,2.21,2.13s.92,1.94,.92,3.16c0,1.33-.36,2.55-1.09,3.66-.73,1.11-1.75,1.99-3.07,2.65-1.32,.65-2.82,.98-4.51,.98-1.13,0-2.29-.14-3.49-.42-1.2-.28-2.34-.69-3.41-1.23l.5-3.91,.5-.23c.95,.9,1.99,1.57,3.13,2.01,1.14,.45,2.19,.67,3.16,.67,1.33,0,2.39-.35,3.18-1.05,.79-.7,1.19-1.54,1.19-2.51s-.38-1.76-1.15-2.36c-.77-.6-1.94-1.27-3.53-2.01-1.36-.64-2.45-1.22-3.3-1.75-.84-.52-1.57-1.22-2.17-2.09-.6-.87-.9-1.92-.9-3.15,0-1.33,.36-2.54,1.07-3.64,.72-1.1,1.71-1.96,2.99-2.59,1.28-.63,2.74-.94,4.37-.94,1.94,0,3.89,.41,5.83,1.23Z"/><path class="d" d="M34.94,21.52l.23,.34-.27,3.03h-14.54l.27-7.4L20.37,.27h14.61l.23,.35-.31,3.03-5.83-.15-4.68,.04-.11,7.17,4.45,.08,4.07-.11,.27,.31-.31,3.03-4.33-.11-4.18,.08-.04,3.18,.12,4.53,4.68,.04,5.95-.19Z"/><path class="d" d="M64.25,24.89h-3.53l-.5-7.48-1.15-11.12h-.27l-6.33,15.88h-3.15l-5.87-15.88h-.35l-1.15,10.78-.61,7.82h-3.34L40.58,.27h4.53l1.15,3.68,4.72,13.08h.31l4.99-13.19,1.15-3.57h4.49l2.34,24.62Z"/><path class="d" d="M84.23,21.52l.23,.34-.27,3.03h-14.54l.27-7.4-.27-17.22h14.61l.23,.35-.31,3.03-5.83-.15-4.68,.04-.12,7.17,4.45,.08,4.07-.11,.27,.31-.31,3.03-4.33-.11-4.18,.08-.04,3.18,.12,4.53,4.68,.04,5.95-.19Z"/><path class="d" d="M108.12,17.53l.12,7.36h-4.26l-11.58-18.45h-.27l-.04,10.2,.11,8.25h-3.6l.19-7.29-.15-17.34h4.18l11.62,18.45h.31l-.08-18.26,3.68-.27-.23,17.34Z"/><path class="d" d="M130.29,1.69l-.73,3.49-.38,.12c-1.71-1.33-3.61-1.99-5.68-1.99-2.25,0-3.97,.76-5.16,2.28-1.19,1.52-1.78,3.79-1.78,6.81s.6,5.45,1.8,7.06c1.2,1.61,2.91,2.42,5.14,2.42,1.07,0,2.14-.19,3.2-.56,1.06-.37,2.04-.89,2.93-1.55l.38,.23-.31,3.61c-2.2,1.07-4.37,1.61-6.52,1.61-3.45,0-6.11-1.07-7.98-3.22-1.87-2.15-2.8-5.2-2.8-9.17s.98-7.25,2.93-9.47c1.96-2.22,4.72-3.34,8.3-3.34,2.51,0,4.72,.56,6.64,1.69Z"/><path class="d" d="M148.9,21.52l.23,.34-.27,3.03h-14.54l.27-7.4-.27-17.22h14.61l.23,.35-.31,3.03-5.83-.15-4.68,.04-.11,7.17,4.45,.08,4.07-.11,.27,.31-.31,3.03-4.33-.11-4.18,.08-.04,3.18,.12,4.53,4.68,.04,5.95-.19Z"/><path class="d" d="M166.27,1.23l-.65,3.61-.61,.23c-.82-.59-1.66-1.05-2.53-1.38-.87-.33-1.7-.5-2.49-.5-1.25,0-2.25,.34-2.99,1.04-.74,.69-1.11,1.5-1.11,2.42s.37,1.63,1.11,2.21c.74,.58,1.9,1.23,3.49,1.98,1.38,.67,2.5,1.27,3.36,1.8,.86,.54,1.59,1.25,2.21,2.13s.92,1.94,.92,3.16c0,1.33-.36,2.55-1.09,3.66-.73,1.11-1.75,1.99-3.07,2.65s-2.82,.98-4.51,.98c-1.13,0-2.29-.14-3.49-.42-1.2-.28-2.34-.69-3.41-1.23l.5-3.91,.5-.23c.95,.9,1.99,1.57,3.13,2.01,1.14,.45,2.19,.67,3.16,.67,1.33,0,2.39-.35,3.18-1.05,.79-.7,1.19-1.54,1.19-2.51s-.38-1.76-1.15-2.36c-.77-.6-1.94-1.27-3.53-2.01-1.36-.64-2.45-1.22-3.3-1.75-.84-.52-1.57-1.22-2.17-2.09-.6-.87-.9-1.92-.9-3.15,0-1.33,.36-2.54,1.07-3.64,.72-1.1,1.71-1.96,2.99-2.59,1.28-.63,2.74-.94,4.37-.94,1.94,0,3.89,.41,5.83,1.23Z"/><path class="d" d="M195.38,3.11c1.89,1.99,2.84,4.86,2.84,8.59,0,4.32-1.04,7.64-3.11,9.95-2.07,2.31-5.05,3.47-8.94,3.47-1.1,0-2.42-.02-3.95-.06-1.53-.04-2.97-.1-4.3-.17h-.04l.27-7.4-.27-17.22h.04l9.32-.15c3.53,0,6.24,1,8.13,2.99Zm-3.13,16.53c1.24-1.56,1.86-3.91,1.86-7.06s-.59-5.5-1.78-7c-1.19-1.5-2.99-2.24-5.39-2.24-1.41,0-3.08,.05-5.03,.15l-.19,13.65,.12,4.56c.92,.08,1.84,.14,2.76,.19,.92,.05,1.68,.08,2.26,.08,2.35,0,4.15-.78,5.39-2.34Z"/><path class="d" d="M217.32,21.52l.23,.34-.27,3.03h-14.54l.27-7.4-.27-17.22h14.61l.23,.35-.31,3.03-5.83-.15-4.68,.04-.11,7.17,4.45,.08,4.07-.11,.27,.31-.31,3.03-4.33-.11-4.18,.08-.04,3.18,.12,4.53,4.68,.04,5.95-.19Z"/><path class="d" d="M241.89,2.13c1.34,1.27,2.01,3.09,2.01,5.47,0,2.76-.85,4.95-2.55,6.56-1.7,1.61-4.03,2.42-7,2.42h-2.72v.58l.19,7.75h-4.03l.27-7.4-.27-17.22,8.36-.04c2.48,0,4.39,.63,5.73,1.9Zm-3.18,9.55c.73-.93,1.09-2.18,1.09-3.74s-.39-2.67-1.17-3.41-1.96-1.14-3.55-1.19l-3.26,.11-.15,9.97,3.84,.08c1.41-.28,2.47-.89,3.2-1.82Z"/><path class="d" d="M264.77,24.89h-4.07l-.58-2.76-1.07-3.41-5.22-.12-4.72,.12-1.15,3.22-.61,2.95h-3.95L252.19,.27h4.64l7.94,24.62Zm-6.71-9.4l-3.53-11.35h-.27l-4.03,11.35,3.87,.08,3.95-.08Z"/><path class="d" d="M275.39,17.84l.15,7.06h-3.95l.19-7.06-.04-1.5L263.96,.27h4.22l.5,1.53,4.87,10.32h.31l5.41-10.24,.61-1.61h4.1l-8.55,15.88-.04,1.69Z"/><path class="d" d="M300.52,1.23l-.65,3.61-.61,.23c-.82-.59-1.66-1.05-2.53-1.38-.87-.33-1.7-.5-2.49-.5-1.25,0-2.25,.34-2.99,1.04-.74,.69-1.11,1.5-1.11,2.42s.37,1.63,1.11,2.21c.74,.58,1.9,1.23,3.49,1.98,1.38,.67,2.5,1.27,3.36,1.8,.86,.54,1.59,1.25,2.21,2.13,.61,.88,.92,1.94,.92,3.16,0,1.33-.36,2.55-1.09,3.66-.73,1.11-1.75,1.99-3.07,2.65-1.32,.65-2.82,.98-4.51,.98-1.13,0-2.29-.14-3.49-.42-1.2-.28-2.34-.69-3.41-1.23l.5-3.91,.5-.23c.95,.9,1.99,1.57,3.13,2.01,1.14,.45,2.19,.67,3.16,.67,1.33,0,2.39-.35,3.18-1.05,.79-.7,1.19-1.54,1.19-2.51s-.38-1.76-1.15-2.36c-.77-.6-1.94-1.27-3.53-2.01-1.36-.64-2.45-1.22-3.3-1.75-.84-.52-1.57-1.22-2.17-2.09-.6-.87-.9-1.92-.9-3.15,0-1.33,.36-2.54,1.07-3.64,.72-1.1,1.71-1.96,2.99-2.59,1.28-.63,2.74-.94,4.37-.94,1.94,0,3.89,.41,5.83,1.23Z"/></g></g></g></svg>